HIERARCHY
ROOT hip
{
	OFFSET 0.000000 0.000000 0.000000
	CHANNELS 6 Xposition Yposition Zposition Xrotation Zrotation Yrotation 
	JOINT abdomen
	{
		OFFSET 0.000000 3.422050 0.000000
		CHANNELS 3 Xrotation Zrotation Yrotation 
		JOINT chest
		{
			OFFSET 0.000000 8.486693 -0.684411
			CHANNELS 3 Xrotation Zrotation Yrotation 
			JOINT neck
			{
				OFFSET 0.000000 10.266162 -0.273764
				CHANNELS 3 Xrotation Zrotation Yrotation 
				JOINT head
				{
					OFFSET 0.000000 3.148285 0.000000
					CHANNELS 3 Xrotation Zrotation Yrotation 
					End Site
					{
						OFFSET 0.000000 3.148289 0.000000
					}
				}
			}
			JOINT lCollar
			{
				OFFSET 3.422053 6.707223 -0.821293
				CHANNELS 3 Yrotation Zrotation Xrotation 
				JOINT lShldr
				{
					OFFSET 3.285171 0.000000 0.000000
					CHANNELS 3 Zrotation Yrotation Xrotation 
					JOINT lForeArm
					{
						OFFSET 10.129278 0.000000 0.000000
						CHANNELS 3 Yrotation Zrotation Xrotation 
						JOINT lHand
						{
							OFFSET 8.486692 0.000000 0.000000
							CHANNELS 3 Zrotation Yrotation Xrotation 
							End Site
							{
								OFFSET 4.106464 0.000000 0.000000
							}
						}
					}
				}
			}
			JOINT rCollar
			{
				OFFSET -3.558935 6.707223 -0.821293
				CHANNELS 3 Yrotation Zrotation Xrotation 
				JOINT rShldr
				{
					OFFSET -3.148289 0.000000 0.000000
					CHANNELS 3 Zrotation Yrotation Xrotation 
					JOINT rForeArm
					{
						OFFSET -10.266159 0.000000 0.000000
						CHANNELS 3 Yrotation Zrotation Xrotation 
						JOINT rHand
						{
							OFFSET -8.349810 0.000000 0.000000
							CHANNELS 3 Zrotation Yrotation Xrotation 
							End Site
							{
								OFFSET -4.106464 0.000000 0.000000
							}
						}
					}
				}
			}
		}
	}
	JOINT lThigh
	{
		OFFSET 5.338403 -1.642589 1.368821
		CHANNELS 3 Xrotation Zrotation Yrotation 
		JOINT lShin
		{
			OFFSET -2.053232 -20.121670 0.000000
			CHANNELS 3 Xrotation Zrotation Yrotation 
			JOINT lFoot
			{
				OFFSET 0.000000 -19.300380 -1.231939
				CHANNELS 3 Xrotation Yrotation Zrotation 
				End Site
				{
					OFFSET 0.000000 -2.463878 4.653993
				}
			}
		}
	}
	JOINT rThigh
	{
		OFFSET -5.338403 -1.642589 1.368821
		CHANNELS 3 Xrotation Zrotation Yrotation 
		JOINT rShin
		{
			OFFSET 2.053232 -20.121670 0.000000
			CHANNELS 3 Xrotation Zrotation Yrotation 
			JOINT rFoot
			{
				OFFSET 0.000000 -19.300380 -1.231939
				CHANNELS 3 Xrotation Yrotation Zrotation 
				End Site
				{
					OFFSET 0.000000 -2.463878 4.653993
				}
			}
		}
	}
}
MOTION
Frames: 6
Frame Time: 0.033264
0.000000 17.085396 7.890815 15.399867 0.000000 -180.000000 -23.345245 0.000000 0.000000 -8.430447 -0.003386 -0.450349 8.574908 4.117898 0.182938 -19.214066 9.233728 -17.437166 -1.139530 -6.956547 0.105203 -72.303558 56.618343 -1.664227 -9.276340 -1.509788 -0.057587 -6.244589 1.056810 0.067106 1.136190 6.891664 0.098690 71.363190 -54.654797 -3.545171 15.228202 1.597311 -1.920791 7.394681 0.031428 -0.455154 -22.435614 37.713264 14.787343 125.076118 29.770466 -9.811818 65.691032 13.988078 5.092373 -22.434277 -37.718597 -14.791752 125.075874 -29.768782 9.806954 65.691437 -13.991943 -5.094056 
0.000000 17.024118 7.890815 15.799664 0.000000 -180.000000 -23.345245 0.000000 0.000000 -8.430447 -0.003386 -0.450349 9.271042 4.084039 0.184167 -19.111290 9.203032 -17.342670 -2.284980 -5.912826 0.426465 -73.915947 57.220791 -2.928221 -10.559537 -3.025769 -0.149385 -5.485446 2.115123 0.148395 2.282126 5.786021 0.414447 71.846375 -53.285252 -6.527051 22.513954 2.939196 -4.029439 7.792476 0.066033 -0.910308 -22.184786 38.076206 14.810808 125.076118 29.770466 -9.811818 65.623245 14.165961 5.466089 -22.183483 -38.082493 -14.816041 125.075874 -29.768782 9.806954 65.623962 -14.168809 -5.468397 
0.000000 16.962843 7.890815 16.199535 0.000000 -180.000000 -23.345245 0.000000 0.000000 -8.430447 -0.003386 -0.450349 9.967277 4.050160 0.184983 -19.008541 9.172161 -17.248209 -3.438016 -4.872392 0.769180 -75.581223 57.803940 -4.245751 -11.853371 -4.546289 -0.276034 -4.722557 3.174478 0.244003 3.436022 4.683193 0.752942 72.199516 -51.898369 -9.407311 29.737770 4.538251 -5.947762 8.190160 0.103813 -1.365414 -21.932449 38.439129 14.836425 125.076118 29.770466 -9.811818 65.554169 14.343447 5.840391 -21.931189 -38.446392 -14.842497 125.075874 -29.768782 9.806954 65.555237 -14.345283 -5.843324 
0.000000 16.901566 7.890815 16.599478 0.000000 -180.000000 -23.345245 0.000000 0.000000 -8.430447 -0.003386 -0.450349 10.663561 4.016273 0.185387 -18.905842 9.141120 -17.153801 -4.598945 -3.836149 1.133388 -77.300201 58.366474 -5.617664 -13.159009 -6.069648 -0.438205 -3.955574 4.234407 0.354075 4.598262 3.584163 1.114248 72.432556 -50.499805 -12.193851 37.028103 5.882685 -8.057379 8.587690 0.144768 -1.820427 -21.678574 38.802044 14.864225 125.076118 29.770466 -9.811818 65.483849 14.520519 6.215277 -21.677340 -38.810265 -14.871142 125.075874 -29.768782 9.806954 65.485268 -14.521348 -6.218832 
0.000000 16.840290 7.890815 16.999475 0.000000 -180.000000 -23.345245 0.000000 0.000000 -8.430447 -0.003386 -0.450349 11.359838 3.982380 0.185377 -18.803177 9.109901 -17.059429 -5.768061 -2.805015 1.519115 -79.073540 58.907078 -7.044606 -14.477647 -7.594090 -0.636598 -3.184148 5.294434 0.478762 5.769213 2.489923 1.498427 72.554871 -49.094910 -14.893950 44.195873 7.600554 -9.867091 8.985014 0.188891 -2.275298 -21.423119 39.164909 14.894243 125.076118 29.770466 -9.811818 65.412270 14.697176 6.590746 -21.421900 -39.174091 -14.902021 125.075874 -29.768782 9.806954 65.414017 -14.696986 -6.594917 
0.000000 16.779015 7.890815 17.399521 0.000000 -180.000000 -23.345245 0.000000 0.000000 -8.430447 -0.003386 -0.450349 12.056059 3.948491 0.184955 -18.700550 9.078509 -16.965105 -6.945635 -1.779917 1.926374 -80.901520 59.424381 -8.526886 -15.810515 -9.117820 -0.871947 -2.407925 6.354079 0.618225 6.949224 1.401477 1.905529 72.575439 -47.688789 -17.514259 51.474701 9.085005 -11.895850 9.382092 0.236181 -2.729983 -21.166063 39.527740 14.926534 125.076118 29.770466 -9.811818 65.339424 14.873391 6.966795 -21.164837 -39.537876 -14.935175 125.075874 -29.768782 9.806954 65.341507 -14.872190 -6.971580 
